# xmcd
#
# Track frame offsets: 
#        182
#        23445
#        48485
#        71550
#        95127
#        111090
#        128742
#        144712
#        160742
#        166717
#        185132
#        201737
#
# Disc length: 2726 seconds
#
# Revision: 1
# Processed by: cddbd v1.5.2PL0 Copyright (c) Steve Scherf et al.
# Submitted via: ExactAudioCopyFreeDBPlugin 1.0
#
DISCID=ac0aa40c
DTITLE=Robert Pete Williams - Time's So Hard With Me
DYEAR=1900
DGENRE=Blues
TTITLE0=Santa Fe Blues
TTITLE1=Cow Bell Mourn
TTITLE2=Late Las' Nite
TTITLE3=Time's So Hard With Me
TTITLE4=Goin' Thru' The Bushes Like A Turkey Again
TTITLE5=Candy Man
TTITLE6=I'm Gonna Go To The River
TTITLE7=My Baby Leant Out With Another Man
TTITLE8=The Woman I Got
TTITLE9=Santa Fe Kazoo Blues
TTITLE10=C'Mon Babe Let's Have A Ball
TTITLE11=I'm Gonna Leave You Baby
EXTD=ID3G: 0
EXTT0=
EXTT1=
EXTT2=
EXTT3=
EXTT4=
EXTT5=
EXTT6=
EXTT7=
EXTT8=
EXTT9=
EXTT10=
EXTT11=
PLAYORDER=
